<?xml version="1.0" encoding="utf-8"?>
<svg xmlns="http://www.w3.org/2000/svg" height="16px" width="16px" viewBox="0 0 24 24">
  <g>
    <ellipse cy="12" cx="12" ry="12" rx="12" fill="#380909" />
    <path id="path1" transform="rotate(0,12,12) translate(2,6.54728092278343) scale(0.624882824339546,0.624882824339546)  " fill="#FF9D2C" d="M30.005999,8.0568698C29.737017,8.3188956 29.508013,8.5399058 29.312029,8.7258818 29.508013,8.9128955 29.737017,9.1329291 30.005999,9.3948939z M6.954974,6.402025C6.3249791,6.402025 5.8129833,6.8870294 5.8129833,7.4840343 5.8129833,8.0800393 6.3249791,8.5650437 6.954974,8.5650437 7.5849693,8.5650437 8.0979655,8.0800393 8.0979655,7.4840343 8.0979655,6.8870294 7.5849693,6.402025 6.954974,6.402025z M6.954974,5.4020164C8.1369651,5.4020164 9.0979569,6.3360245 9.0979569,7.4840343 9.0979569,8.6310446 8.1369651,9.5650523 6.954974,9.5650523 5.7739838,9.5650523 4.8129914,8.6310446 4.8129914,7.4840343 4.8129914,6.3360245 5.7739838,5.4020164 6.954974,5.4020164z M15.988982,4.855046L15.988982,12.618045 12.236941,10.673045 12.696946,9.7850459 14.988972,10.973046 14.988972,6.5180457 12.700946,7.7330458 12.231941,6.849046z M12.33223,2.0005655C11.569586,2.0028572 10.826666,2.0828705 10.10401,2.2408385 5.3819611,3.2708769 2.8839739,7.4158723 2.2019666,8.7249053 2.8889788,10.033938 5.4099763,14.195962 10.122992,15.215991 14.747995,16.216 20.193981,14.032936 26.328018,8.7258818 21.143978,4.2421839 16.45051,1.9881909 12.33223,2.0005655z M12.489548,0.00062068406C17.115204,0.045448787 22.257523,2.5182142 27.82503,7.3768709 28.479021,6.749912 29.524004,5.7298834 30.30501,4.9628475L32.005999,3.2908354 32.005999,14.160928 30.30501,12.489953C29.407,11.60695 28.435015,10.65992 27.82503,10.074893 22.205031,14.979966 17.018015,17.451973 12.359016,17.451973 11.443977,17.451973 10.549994,17.355963 9.677008,17.165961 3.0849629,15.725945 0.28698746,9.3909266 0.16998283,9.1218817L0,8.7258818 0.16998283,8.3298819C0.28698746,8.0608981 3.0849629,1.7258192 9.677008,0.28684147 10.591721,0.086598619 11.529506,-0.0086829205 12.489548,0.00062068406z" />
  </g>
</svg>

