<?xml version="1.0" encoding="utf-8"?>
<svg xmlns="http://www.w3.org/2000/svg" height="16px" width="16px" viewBox="0 0 24 24">
  <g>
    <ellipse cy="12" cx="12" ry="12" rx="12" fill="#b5445c" />
    <path id="path1" transform="rotate(0,12,12) translate(7.5,6) scale(0.375,0.375)  " fill="#FFFBFB" d="M8,28L24,28 24,30 8,30z M3,26C4.6569824,26 6,27.343018 6,29 6,30.656982 4.6569824,32 3,32 1.3430176,32 0,30.656982 0,29 0,27.343018 1.3430176,26 3,26z M8,16L24,16 24,18 8,18z M3,13C4.6569824,13 6,14.343018 6,16 6,17.656982 4.6569824,19 3,19 1.3430176,19 0,17.656982 0,16 0,14.343018 1.3430176,13 3,13z M8,2L24,2 24,4 8,4z M3,0C4.6569824,0 6,1.3430176 6,3 6,4.6569824 4.6569824,6 3,6 1.3430176,6 0,4.6569824 0,3 0,1.3430176 1.3430176,0 3,0z" />
  </g>
</svg>

