<?xml version="1.0" encoding="UTF-8" standalone="no"?>
<!DOCTYPE svg PUBLIC "-//W3C//DTD SVG 1.1//EN" "http://www.w3.org/Graphics/SVG/1.1/DTD/svg11.dtd">
<svg width="16px" height="16px" viewBox="0 0 384 384" version="1.1" xmlns="http://www.w3.org/2000/svg" xmlns:xlink="http://www.w3.org/1999/xlink" xml:space="preserve" xmlns:serif="http://www.serif.com/" style="fill-rule:evenodd;clip-rule:evenodd;stroke-linejoin:round;stroke-miterlimit:2;">
    <path d="M292.903,331.75C292.183,331.759 291.462,331.769 290.27,331.532C289.596,331.096 289.356,330.99 289.078,330.969C289.078,330.969 289.018,330.993 288.875,330.762C288.501,330.287 288.22,330.131 287.889,330.064C281.99,328.215 276.09,326.366 270.116,324.494C270.116,322.688 270.065,321.204 270.126,319.725C270.283,315.983 270.907,312.676 264.929,312.583C260.608,312.516 260.949,308.012 261.394,304.665C261.724,302.187 262.121,299.916 258.163,299.12C255.093,297.804 252.55,296.891 249.692,295.833C248.257,295.446 247.137,295.204 245.742,294.736C241.305,293.078 237.144,291.645 231.892,289.836L231.892,308.742C228.186,307.819 225.427,307.133 221.207,306.083C221.207,318.43 221.207,329.793 221.135,341.441C220.412,342.408 219.76,343.092 219.059,343.565C219.009,343.355 218.953,342.926 218.834,342.609C216.39,341.119 214.063,339.947 211.709,338.32C211.724,329.548 211.766,321.23 211.768,312.578C204.078,309.473 196.429,306.703 188.481,303.686C181.641,301.001 175.136,298.465 168.553,296.146C156.637,291.949 144.676,287.882 132.44,283.538C125.923,281.002 119.714,278.649 113.472,276.385C107.752,274.311 106.062,275.544 106.306,281.524C106.42,284.347 106.788,287.169 106.731,289.986C106.662,293.355 106.261,296.718 106.004,300.083C102.228,300.27 101.119,298.736 101.032,294.76C100.829,285.539 99.84,276.333 99.028,267.133C98.95,266.247 98.055,264.976 97.25,264.687C92.317,262.915 91.917,258.988 92.136,254.674C92.161,254.177 92.168,253.679 92.166,253.182C92.129,244.161 91.571,243.411 82.312,240.257C78.173,238.553 74.57,237.238 70.591,235.786C70.147,239.068 69.853,241.249 69.546,243.522C67.23,243.162 65.494,242.893 63.751,242.622C63.477,245.629 63.231,248.332 62.984,251.035C58.818,249.706 54.286,248.987 50.635,246.798C48.71,245.643 48.323,241.923 46.834,238.397C44.924,237.615 41.813,236.342 38.258,234.637C37.075,233.604 36.426,232.765 35.582,232.445C32.327,231.21 28.761,229.318 28.748,235.638C28.746,236.457 26.226,237.271 24.872,238.088C23.61,237.111 21.341,236.229 21.239,235.143C19.987,221.806 19.049,208.44 18.048,195.081C17.999,194.426 18.119,193.759 18.176,192.845C19.827,192.027 21.555,191.17 23.538,190.589C21.799,193.346 21.489,195.197 25.334,196.107C28.23,196.792 31.03,197.883 33.868,198.805C41.588,201.31 42.491,200.656 42.023,192.891C41.993,192.394 42.013,191.895 42.002,191.398C41.843,184.463 41.843,184.463 35.108,185.032C42.389,182.576 39.161,176.699 38.908,172.199C38.317,161.658 37.056,151.155 36.155,140.629C35.068,127.936 33.862,115.247 33.14,102.531C32.841,97.256 29.219,96.451 25.745,95.489C24.486,82.689 23.251,70.196 22.03,57.701C20.939,46.524 20.014,35.326 18.668,24.179C18.351,21.556 18.768,20.563 21.28,20.047C30.478,18.157 39.721,16.416 48.816,14.101C60.185,11.207 71.428,11.776 82.933,14.581C81.737,15.707 80.405,16.719 78.926,17.029C68.518,19.213 58.06,21.162 47.671,23.431C46.026,23.79 43.331,25.428 43.364,26.398C43.582,32.777 44.414,39.134 45.095,45.991C50.823,44.745 55.665,43.713 60.497,42.636C68.027,40.959 68.319,40.929 67.888,33.221C67.626,28.542 69.382,26.794 73.776,25.992C78.595,25.113 83.26,23.386 87.992,22.029C102.526,17.452 117.213,16.452 132.38,20.526C131.518,21.502 130.438,22.373 129.221,22.663C118.723,25.16 108.18,27.468 97.707,30.062C96.047,30.473 93.707,31.762 93.332,33.105C91.814,38.547 95.035,41.84 100.508,41.017C100.998,40.943 101.503,40.963 102.049,41.236C102.411,42.028 102.726,42.524 103.026,43.486C103.637,57.372 104.36,70.788 104.86,84.212C105.361,97.653 105.588,111.104 106.046,124.546C106.193,128.85 106.526,133.166 107.157,137.419C107.305,138.415 109.007,139.18 110.099,140.369C111.826,141.463 113.448,142.241 115.064,143.465C115.383,150.272 115.709,156.632 115.633,162.971C112.547,162.333 109.76,161.986 107.206,161.023C104.343,159.944 101.691,158.306 98.973,156.449C98.361,141.566 97.628,127.149 97.159,112.723C97.055,109.521 95.936,108.104 92.928,107.045C91.259,106.456 89.166,104.172 89.048,102.525C87.809,85.152 87.041,67.747 85.84,50.371C85.64,47.478 83.985,44.685 82.851,41.522C78.023,39.269 76.849,39.803 77.045,44.544C77.551,56.772 78.292,68.991 79.016,81.209C79.622,91.443 80.367,101.668 80.985,111.901C81.167,114.925 82.635,115.156 85.301,114.079C87.499,114.707 89.336,115.274 90.799,116.009C89.981,118.341 89.074,120.525 89.167,122.665C89.664,134.11 90.41,145.543 90.786,157.063C91.229,158.065 91.801,159.58 92.705,159.815C114.206,165.387 135.739,170.836 157.276,176.266C161.187,177.253 165.142,178.062 168.986,178.932C168.986,173.143 168.986,168.061 168.992,162.511C168.991,135.551 169.069,109.058 168.888,82.567C168.859,78.203 170.051,75.552 174.482,74.684C177.406,74.11 178.919,72.56 179.182,69.231C179.303,67.691 181.454,66.125 182.968,64.93C184.816,63.472 186.962,62.391 188.979,61.147C195.99,58.763 202.86,55.711 210.054,54.192C216.614,52.806 223.526,53.081 230.818,52.588C230.869,52.209 231.082,50.612 231.354,48.566C242.837,44.339 254.505,39.958 266.258,35.819C267.798,35.277 269.782,35.907 271.547,36.107C280.397,37.109 289.242,38.149 298.484,39.58C297.55,41.047 296.375,42.481 294.865,43.103C289.332,45.385 283.783,47.714 278.061,49.433C270.351,51.75 264.786,55.14 266.813,64.612C267.17,66.28 266.171,68.194 266.077,70.009C264.701,96.703 263.208,123.393 262.087,150.099C261.214,170.864 261.276,191.695 255.911,212.095C255.834,212.175 255.68,212.333 255.298,212.307C240.753,208.585 226.587,204.903 212.429,201.192C200.039,197.944 187.704,194.468 175.231,191.582C173.026,191.072 169.983,192.517 167.832,193.865C165.31,195.446 165.596,197.827 167.391,200.319C168.009,201.177 167.272,203.051 167.072,204.45C166.847,206.027 166.217,207.61 166.312,209.158C166.61,214.026 167.195,218.876 167.61,223.739C167.848,226.53 167.972,229.331 168.147,232.128C165.579,238.041 165.864,239.078 172.103,241.443C173.311,241.902 174.697,241.891 175.99,242.53C176.655,245.642 177.332,248.321 178.118,251.334C179.786,252.486 181.269,253.531 182.917,254.08C189.948,256.422 197.014,258.662 204.097,260.842C206.706,261.645 209.396,262.183 212.631,262.986C212.788,260.581 212.903,258.823 213.105,256.606C213.324,255.529 213.456,254.912 213.979,254.292C218.307,255.561 222.246,256.832 226.407,258.176C221.716,266.431 221.749,266.458 229.579,268.916C238.45,271.7 247.292,274.58 256.169,277.345C258.439,278.052 260.794,278.485 263.417,279.118C263.783,275.593 264.072,272.809 264.729,270.049C268.143,270.909 271.204,271.694 274.231,272.59C297.194,279.389 320.15,286.209 343.097,293.477C342.863,297.073 342.718,300.222 342.402,303.354C340.938,317.863 339.426,332.367 337.931,346.873C337.931,346.873 337.91,346.942 337.692,346.906C337.475,346.87 337.109,346.941 337.109,346.941C336.633,346.904 336.157,346.867 335.237,346.54C334.593,346.063 334.355,345.971 334.081,345.973C325.849,344.642 325.68,344.395 325.886,333.684C317.884,330.835 309.806,327.958 301.19,324.664C298.821,323.322 296.991,322.398 295.161,321.474C294.463,323.41 293.599,325.307 293.121,327.297C292.78,328.716 292.957,330.261 292.903,331.75M47.911,221.076C47.653,219.452 47.065,217.801 47.198,216.209C47.64,210.885 44.666,209.233 39.402,208.755C37.581,208.212 35.76,207.67 33.122,206.884C33.533,212.566 33.788,217.426 34.348,222.251C34.422,222.892 36.046,223.353 37.481,224.399C40.587,225.593 43.693,226.787 47.591,228.286C47.741,225.596 47.843,223.746 47.911,221.076M295.21,309.691C300.209,311.651 305.161,313.744 310.219,315.538C316.308,317.698 317.476,316.763 317.946,309.028C318.161,306.212 318.663,303.377 318.474,300.589C318.374,299.116 317.376,296.827 316.261,296.45C310.933,294.645 305.426,293.368 299.517,291.439C296.104,289.258 295.066,291.029 295.028,294.212C294.968,299.151 294.997,304.09 295.21,309.691M227.442,191.166C227.28,193.592 228.293,194.602 231.941,194.868C234.683,195.069 238.221,196.039 238.454,190.449C238.948,179.847 239.604,169.249 239.891,158.641C240.176,148.09 240.013,148.086 251.16,148.367C252.361,121.615 253.562,94.831 254.831,67.296C253.204,62.808 249.244,64.562 245.316,64.082C244.548,65.328 243.202,66.533 243.108,67.828C242.581,75.1 242.258,82.391 242.047,89.68C241.59,105.439 241.243,121.202 240.066,136.988C237.741,136.661 235.417,136.334 232.532,135.612C227.832,136.621 229.29,140.746 229.185,143.402C228.559,159.255 228.368,175.125 227.442,191.166M109.216,229.796C113.602,231.516 117.926,233.421 122.389,234.909C127.921,236.753 133.568,238.251 139.635,240.036C139.832,237.533 139.959,235.919 140.167,233.613C140.139,233.152 140.112,232.691 140.424,232.07C140.424,232.07 140.757,231.896 141.514,232.03C148.832,234.706 148.889,234.705 148.756,226.934C148.533,214.007 148.313,201.079 147.848,188.161C147.792,186.582 146.527,184.005 145.328,183.672C135.283,180.885 125.123,178.515 114.328,175.636C112.575,175.205 110.823,174.774 108.495,174.019C105.995,173.39 103.495,172.761 100.287,171.833C97.532,171.198 94.778,170.563 91.422,169.513C85.546,167.904 79.669,166.294 73.309,164.552C73.047,167.799 72.842,170.346 72.619,173.124C70.37,172.99 68.444,172.875 65.987,172.728C65.987,174.567 65.897,176.173 66.001,177.767C66.715,188.692 67.758,199.606 68.088,210.541C68.25,215.925 69.627,219.079 75.382,220.226C80.718,221.29 85.824,223.486 91.057,225.097C93.494,225.847 95.993,226.393 99.079,227.19C98.955,224.879 98.877,223.435 98.94,221.271C99.286,220.398 99.632,219.525 100.661,218.964C102.11,219.288 103.558,219.612 105.409,220.3C105.547,220.417 105.686,220.533 105.987,221.336C106.984,223.936 107.982,226.536 109.216,229.796M178.575,178.509C176.794,183.944 181.785,181.618 183.553,182.478C186.575,183.947 188.252,182.281 187.992,177.97C188.292,165.509 188.721,153.05 188.859,140.588C189.017,126.444 188.672,112.291 189.048,98.155C189.191,92.789 187.115,90.878 181.354,91.06C180.558,92.951 179.08,94.838 179.07,96.733C178.915,123.837 178.958,150.942 178.575,178.509M53.035,50.864C54.062,63.348 55.09,75.831 56.182,89.1C60.459,87.813 63.866,86.685 67.33,85.779C69.994,85.082 71.21,83.657 71.017,80.813C70.265,69.735 69.725,58.64 68.776,47.58C68.678,46.443 66.282,44.529 65.115,44.643C61.699,44.975 58.365,46.15 54.351,47.171C53.917,48.114 53.482,49.057 53.035,50.864M36.53,74.272C37.733,74.749 38.936,75.227 40.041,76.687C41.117,92.822 42.143,108.961 43.298,125.09C43.698,130.679 44.431,136.244 44.99,141.822C45.2,143.927 45.558,145.71 48.859,144.246C50.89,144.854 52.921,145.461 54.444,146.629C53.958,148.467 52.974,150.332 53.072,152.139C53.578,161.518 54.208,170.899 55.217,180.234C55.362,181.579 57.794,182.676 59.922,183.891C60.806,182.716 62.512,181.496 62.449,180.374C61.779,168.268 60.908,156.172 59.868,144.092C59.72,142.38 58.581,139.486 57.551,139.321C50.627,138.212 51.465,132.807 51.11,128.278C49.615,109.232 48.362,90.166 46.828,71.123C46.71,69.666 45.236,67.268 44.147,67.121C39.27,66.462 38.641,63.137 38.332,59.338C38.049,55.861 38.048,52.318 37.303,48.94C36.965,47.402 35.135,46.192 33.37,44.458C29.77,43.442 29.863,46.024 30.017,48.171C30.599,56.254 31.333,64.326 32.029,72.401C32.283,75.357 34.039,74.874 36.53,74.272M166.943,276.085C166.328,270.252 165.712,264.42 164.615,258.099C160.558,256.653 156.516,255.16 152.438,253.775C148.207,252.337 146.234,253.751 146.086,258.395C145.972,261.989 146.064,265.59 146.064,269.187C145.519,268.79 144.974,268.393 144.429,267.996C142.302,269.579 138.99,270.766 138.301,272.829C136.966,276.83 138.055,280.24 143.29,281.772C152.052,284.337 160.58,287.72 169.146,290.92C171.871,291.938 174.053,291.851 175.517,289.169C177.736,285.1 175.631,280.126 171.159,278.565C169.747,278.072 168.349,277.537 166.943,276.085M197.366,183.198C197.223,183.98 196.878,185.423 196.965,185.45C200.326,186.474 203.727,187.368 207.574,188.402C207.316,184.214 207.155,181.602 207.325,178.232C207.548,176.099 208.143,173.925 207.919,171.84C207.366,166.687 209.011,163.225 214.099,161.371C218.135,159.901 219.014,156.42 219.001,152.441C218.967,141.294 218.889,130.142 219.176,119.001C219.62,101.743 220.332,84.493 220.978,67.241C221.135,63.028 219.151,62.358 215.665,63.707C211.635,65.268 207.653,67.016 203.516,68.22C199.979,69.25 198.997,71.246 198.973,74.762C198.727,110.843 198.335,146.924 197.366,183.198M65.974,122.632C66.342,130.262 66.665,137.895 67.097,145.522C67.312,149.329 67.633,153.137 68.109,156.919C68.232,157.896 69.032,158.854 69.731,159.631C69.858,159.773 71.449,159.136 71.61,158.623C72.851,154.651 74.971,150.586 74.837,146.616C74.233,128.705 72.96,110.817 71.964,92.918C71.768,89.401 69.806,88.211 67.09,90.013C65.55,91.034 64.086,93.571 64.151,95.37C64.468,104.15 65.311,112.912 65.974,122.632M76.583,155.128C76.836,155.149 77.088,155.17 77.341,155.191C77.345,155.048 77.348,154.905 77.352,154.762C77.098,154.771 76.845,154.781 76.583,155.128Z" style="fill:rgb(196,29,63);fill-rule:nonzero;"/>
    <path d="M299.972,76.244C300.657,74.633 302.004,72.985 301.918,71.415C301.395,61.859 303.885,54.426 314.242,51.738C323.691,49.287 332.06,42.734 342.522,44.163C349.729,45.148 356.907,46.337 364.106,47.378C366.392,47.709 368.704,47.857 371.263,48.425C365.106,52.201 358.94,56.284 352.206,58.905C345.202,61.631 341.913,65.985 342.014,73.301C342.046,75.623 341.883,77.957 341.66,80.271C340.132,96.123 338.587,111.973 337.001,127.82C336.059,137.224 335.032,146.62 333.604,156.025C331.132,155.992 329.1,155.955 326.86,155.629C321.202,151.941 321.543,157.052 321.296,159.503C319.981,172.544 319.07,185.626 317.986,198.691C316.929,211.425 315.868,224.159 314.742,236.886C313.528,250.601 312.237,264.309 310.675,278.245C308.272,278.391 306.051,278.733 304.096,278.163C291.697,274.553 279.356,270.741 266.999,266.559C267.78,252.742 268.558,239.362 269.341,225.91C258.112,226.472 256.402,224.882 256.002,214.295C255.977,213.638 255.791,212.987 255.68,212.333C255.68,212.333 255.834,212.175 256.261,212.036C260.897,208.977 265.2,206.177 269.251,203.05C270.245,202.282 270.826,200.472 270.906,199.101C272.014,180.202 273.237,161.304 273.892,142.387C274.125,135.649 275.44,130.508 282.261,127.604C284.282,126.744 286.607,123.989 286.811,121.908C287.898,110.845 288.512,99.727 288.936,88.614C289.069,85.12 290.318,83.25 293.364,81.67C295.838,80.386 297.789,78.091 299.972,76.244M316.526,87.65C315.698,88.747 314.238,89.793 314.145,90.949C313.553,98.286 313.263,105.648 312.041,113.043C309.063,112.7 306.086,112.357 302.554,111.663C301.685,112.913 300.168,114.105 300.05,115.423C299.171,125.298 298.609,135.201 297.869,145.089C296.6,162.061 295.274,179.029 293.16,196.02C290.491,195.665 287.822,195.31 284.553,194.563C283.705,195.909 282.242,197.196 282.108,198.608C281.279,207.365 280.714,216.148 280.132,224.928C279.703,231.392 279.352,237.863 279.035,244.334C278.938,246.314 279.057,248.321 282.749,247.137C290.298,249.532 290.61,249.168 291.01,241.062C291.511,230.938 292.292,220.827 293.024,210.716C293.281,207.171 295.074,205.655 298.755,206.648C300.586,207.142 302.528,207.224 304.82,207.549C305.311,201.469 305.744,196.023 306.191,190.579C307.795,171.039 309.488,151.505 310.961,131.955C311.454,125.409 312.165,124.571 318.929,125.736C322.24,126.307 324.581,125.782 324.855,121.858C325.551,111.912 326.266,101.966 326.97,91.247C325.021,86.045 320.481,88.758 316.526,87.65Z" style="fill:rgb(197,29,63);fill-rule:nonzero;"/>
    <path d="M299.928,75.761C297.789,78.091 295.838,80.386 293.364,81.67C290.318,83.25 289.069,85.12 288.936,88.614C288.512,99.727 287.898,110.845 286.811,121.908C286.607,123.989 284.282,126.744 282.261,127.604C275.44,130.508 274.125,135.649 273.892,142.387C273.237,161.304 272.014,180.202 270.906,199.101C270.826,200.472 270.245,202.282 269.251,203.05C265.2,206.177 260.897,208.977 256.338,211.956C261.276,191.695 261.214,170.864 262.087,150.099C263.208,123.393 264.701,96.703 266.077,70.009C266.171,68.194 267.17,66.28 266.813,64.612C264.786,55.14 270.351,51.75 278.061,49.433C283.783,47.714 289.332,45.385 294.865,43.103C296.375,42.481 297.55,41.047 298.899,39.639C304.005,39.868 301.806,43.843 301.719,46.218C301.364,55.914 300.537,65.593 299.928,75.761Z" style="fill:rgb(153,22,48);fill-rule:nonzero;"/>
    <path d="M310.98,278.02C312.237,264.309 313.528,250.601 314.742,236.886C315.868,224.159 316.929,211.425 317.986,198.691C319.07,185.626 319.981,172.544 321.296,159.503C321.543,157.052 321.202,151.941 326.684,155.859C328.251,158.175 329.685,160.074 331.348,161.745C334.324,164.733 337.151,165.278 340.779,162.083C342.794,160.309 346.097,159.996 348.82,159.025C348.833,162.061 348.847,165.096 348.652,168.744C348.251,169.593 348.127,169.861 348.069,170.16C345.301,195.867 342.534,221.575 339.691,248.02C339.049,250.145 338.483,251.531 337.607,253.029C330.137,260.335 323.016,267.57 315.781,274.689C314.413,276.035 312.592,276.921 310.98,278.02Z" style="fill:rgb(151,22,48);fill-rule:nonzero;"/>
    <path d="M334.044,156.02C335.032,146.62 336.059,137.224 337.001,127.82C338.587,111.973 340.132,96.123 341.66,80.271C341.883,77.957 342.046,75.623 342.014,73.301C341.913,65.985 345.202,61.631 352.206,58.905C358.94,56.284 365.106,52.201 371.694,48.489C372.197,49.885 372.978,51.605 372.791,53.213C370.311,74.538 367.666,95.845 365.147,117.166C364.797,120.126 364.9,123.139 364.531,126.745C364.148,128.232 364.029,129.102 363.909,129.972C363.865,131.039 363.821,132.106 363.405,133.657C362.005,134.946 360.992,135.77 359.949,136.554C351.317,143.047 342.679,149.533 334.044,156.02Z" style="fill:rgb(151,22,48);fill-rule:nonzero;"/>
    <path d="M144.994,49.034C145.819,48.974 146.729,49.122 147.456,48.823C156.954,44.928 166.602,44.77 176.505,48.059C175.005,49.362 173.452,50.334 171.76,50.868C163.719,53.409 155.618,55.759 147.582,58.317C139.178,60.991 138.56,62.262 140.797,71.686C142.167,71.453 143.572,71.213 145.286,71.12C147.076,71.849 148.558,72.433 150.018,73.484C150.325,106.303 150.654,138.655 150.666,171.138C146.841,171.221 142.864,172.084 141.973,166.491C141.676,156.887 141.313,147.748 141.099,138.606C140.71,121.972 140.319,105.337 140.141,88.7C140.101,84.949 138.797,83.048 134.739,82.735C130.794,81.407 130.969,84.027 131.031,86.184C131.278,94.822 131.739,103.454 131.94,112.093C132.368,130.391 132.682,148.69 132.625,166.991C126.974,167.594 124.701,164.724 124.015,159.533C124.006,152.724 123.99,146.384 123.982,139.607C123.973,137.418 123.956,135.666 123.932,133.493C123.617,127.773 123.249,122.477 123.017,117.174C122.843,113.187 122.904,109.19 122.754,105.202C122.205,90.602 121.645,76.003 121.008,61.407C120.867,58.175 122.767,57.1 125.406,56.372C130.535,54.957 135.672,53.543 140.72,51.872C142.286,51.353 143.577,50.003 144.994,49.034Z" style="fill:rgb(196,29,63);fill-rule:nonzero;"/>
    <path d="M144.961,48.564C143.577,50.003 142.286,51.353 140.72,51.872C135.672,53.543 130.535,54.957 125.406,56.372C122.767,57.1 120.867,58.175 121.008,61.407C121.645,76.003 122.205,90.602 122.754,105.202C122.904,109.19 122.843,113.187 123.017,117.174C123.249,122.477 123.617,127.773 123.584,133.582C118.826,136.078 114.41,138.065 109.994,140.052C109.007,139.18 107.305,138.415 107.157,137.419C106.526,133.166 106.193,128.85 106.046,124.546C105.588,111.104 105.361,97.653 104.86,84.212C104.36,70.788 103.637,57.372 103.437,43.483C115.457,40.199 127.068,37.45 138.615,34.453C139.616,34.193 140.192,32.298 140.966,31.162C143.948,30.569 145.154,31.721 145.022,34.811C144.834,39.232 144.945,43.666 144.961,48.564Z" style="fill:rgb(153,22,49);fill-rule:nonzero;"/>
    <path d="M150.984,171.006C150.654,138.655 150.325,106.303 150.402,73.462C162.006,69.325 173.219,65.723 184.376,61.954C185.412,61.604 186.092,60.199 186.937,59.284C187.579,59.694 188.221,60.104 188.921,60.83C186.962,62.391 184.816,63.472 182.968,64.93C181.454,66.125 179.303,67.691 179.182,69.231C178.919,72.56 177.406,74.11 174.482,74.684C170.051,75.552 168.859,78.203 168.888,82.567C169.069,109.058 168.991,135.551 168.673,162.661C162.559,165.854 156.772,168.43 150.984,171.006Z" style="fill:rgb(153,22,49);fill-rule:nonzero;"/>
    <path d="M338.254,346.786C339.426,332.367 340.938,317.863 342.402,303.354C342.718,300.222 342.863,297.073 343.373,293.305C347.801,287.512 351.942,282.345 356.416,277.087C358.87,274.935 361.024,272.907 363.106,270.806C366.676,267.202 370.201,263.553 373.745,259.923C372.355,272.415 370.699,284.884 369.68,297.406C369.103,304.493 367.282,310.33 362.322,315.959C353.781,325.653 346.429,336.396 338.254,346.786Z" style="fill:rgb(149,21,47);fill-rule:nonzero;"/>
    <path d="M161.993,351.007C157.535,349.29 152.959,347.813 148.691,345.712C147.37,345.062 146.761,342.767 146.055,341.127C145.372,339.542 145.258,336.558 144.422,336.377C138.639,335.127 139.055,330.414 138.127,325.604C138.304,323.131 138.554,321.409 138.875,319.185C138.975,315.38 138.919,312.071 139.056,308.772C139.191,305.547 140.64,303.56 144.143,304.9C154.156,308.732 164.115,312.705 173.938,317.046C173.5,326.925 173.22,336.38 172.941,345.835C172.508,345.858 172.075,345.882 171.2,345.566C165.567,341.888 164.97,342.181 163.925,348.041C163.734,349.111 162.659,350.023 161.993,351.007Z" style="fill:rgb(119,8,39);fill-rule:nonzero;"/>
    <path d="M221.207,341.157L221.207,306.083C225.427,307.133 228.186,307.819 231.892,308.742L231.892,289.836C237.144,291.645 241.305,293.078 245.572,295.029C242.035,299.119 238.391,302.692 234.295,306.71C240.451,308.198 248.542,302.037 250.007,295.978C252.55,296.891 255.093,297.804 257.789,298.979C258.59,311.634 247.801,316.189 240.666,323.917C236.375,328.116 232.643,332.03 228.911,335.943C228.911,335.943 228.949,335.949 228.596,335.97C225.898,337.713 223.552,339.435 221.207,341.157Z" style="fill:rgb(150,23,48);fill-rule:nonzero;"/>
    <path d="M199.89,364.791C196.335,363.969 192.78,363.146 189.262,362.332C189.262,354.797 189.262,348.025 189.577,340.463C190.03,335.725 189.783,331.718 190.389,327.843C191.584,320.194 189.728,314.744 181.505,312.697C183.073,310.552 184.527,308.767 186.402,307.005C194.283,309.347 201.745,311.667 209.171,314.456C209.056,323.584 208.978,332.243 208.525,341.005C206.133,340.724 204.117,340.339 201.817,339.771C201.227,339.647 200.654,339.697 200.651,339.766C200.398,347.51 200.187,355.256 199.948,363.299C199.912,363.995 199.901,364.393 199.89,364.791Z" style="fill:rgb(186,190,198);fill-rule:nonzero;"/>
    <path d="M106.006,300.476C106.261,296.718 106.662,293.355 106.731,289.986C106.788,287.169 106.42,284.347 106.306,281.524C106.062,275.544 107.752,274.311 113.472,276.385C119.714,278.649 125.923,281.002 132.105,283.797C131.578,287.574 131.093,290.872 130.27,294.142C128.643,293.789 127.354,293.463 125.753,292.983C121.53,292.203 123.03,295.313 123.056,296.76C123.262,307.858 123.659,318.954 124.068,330.047C124.178,333.041 123.57,335.039 119.938,334.039C118.41,333.53 116.882,333.022 115.594,332.593C115.096,326.934 114.52,321.499 114.168,316.05C113.85,311.119 111.306,307.667 107.633,304.654C106.691,303.881 106.528,302.156 106.006,300.476Z" style="fill:rgb(184,186,194);fill-rule:nonzero;"/>
    <path d="M126.066,293.137C127.354,293.463 128.643,293.789 130.568,294.345C147.934,300.736 164.663,306.897 181.392,313.057C189.728,314.744 191.584,320.194 190.389,327.843C189.783,331.718 190.03,335.725 189.601,340.018C187.12,339.495 184.928,338.626 182.181,337.382C175.61,335.265 174.333,331.011 174.917,325.307C175.208,322.47 174.405,319.521 174.096,316.622C164.115,312.705 154.156,308.732 144.143,304.9C140.64,303.56 139.191,305.547 139.056,308.772C138.919,312.071 138.975,315.38 138.498,319.065C136.346,318.82 134.69,317.959 132.933,317.61C127.521,316.536 125.867,313.109 126.095,307.966C126.313,303.034 126.093,298.081 126.066,293.137Z" style="fill:rgb(193,30,64);fill-rule:nonzero;"/>
    <path d="M87.973,21.606C83.26,23.386 78.595,25.113 73.776,25.992C69.382,26.794 67.626,28.542 67.888,33.221C68.319,40.929 68.027,40.959 60.497,42.636C55.665,43.713 50.823,44.745 45.095,45.991C44.414,39.134 43.582,32.777 43.364,26.398C43.331,25.428 46.026,23.79 47.671,23.431C58.06,21.162 68.518,19.213 78.926,17.029C80.405,16.719 81.737,15.707 83.329,14.617C89.605,13.606 87.438,18.249 87.973,21.606Z" style="fill:rgb(154,22,49);fill-rule:nonzero;"/>
    <path d="M373.804,259.551C370.201,263.553 366.676,267.202 363.106,270.806C361.024,272.907 358.87,274.935 356.242,276.777C349.796,268.677 343.857,260.797 337.917,252.917C338.483,251.531 339.049,250.145 339.779,248.479C350.045,250.839 360.167,253.403 370.223,256.206C371.605,256.591 372.658,258.158 373.804,259.551Z" style="fill:rgb(201,29,65);fill-rule:nonzero;"/>
    <path d="M102.002,40.939C101.503,40.963 100.998,40.943 100.508,41.017C95.035,41.84 91.814,38.547 93.332,33.105C93.707,31.762 96.047,30.473 97.707,30.062C108.18,27.468 118.723,25.16 129.221,22.663C130.438,22.373 131.518,21.502 132.789,20.585C133.942,21.121 135.541,21.793 135.876,22.862C136.596,25.157 136.665,27.657 136.707,30.657C131.951,32.512 127.491,33.794 123.024,35.052C116.019,37.023 109.009,38.978 102.002,40.939Z" style="fill:rgb(153,22,49);fill-rule:nonzero;"/>
    <path d="M144.977,70.974C143.572,71.213 142.167,71.453 140.797,71.686C138.56,62.262 139.178,60.991 147.582,58.317C155.618,55.759 163.719,53.409 171.76,50.868C173.452,50.334 175.005,49.362 176.814,48.295C177.988,48.917 179.57,49.695 179.823,50.783C180.288,52.783 179.971,54.966 179.753,57.776C176.46,59.7 173.428,61.017 170.32,62.122C161.889,65.121 153.427,68.03 144.977,70.974Z" style="fill:rgb(154,22,49);fill-rule:nonzero;"/>
    <path d="M125.753,292.983C126.093,298.081 126.313,303.034 126.095,307.966C125.867,313.109 127.521,316.536 132.933,317.61C134.69,317.959 136.346,318.82 138.426,319.566C138.554,321.409 138.304,323.131 138.036,325.191C133.92,328.666 129.963,332.024 125.636,334.807C124.368,335.622 122.051,334.805 120.076,334.387C123.57,335.039 124.178,333.041 124.068,330.047C123.659,318.954 123.262,307.858 123.056,296.76C123.03,295.313 121.53,292.203 125.753,292.983Z" style="fill:rgb(143,144,151);fill-rule:nonzero;"/>
    <path d="M333.604,156.025C342.679,149.533 351.317,143.047 359.949,136.554C360.992,135.77 362.005,134.946 363.342,134.053C361.299,136.764 359.444,140.387 356.481,142.174C351.766,145.019 349.891,148.697 349.826,153.866C349.807,155.323 349.291,156.774 348.911,158.626C346.097,159.996 342.794,160.309 340.779,162.083C337.151,165.278 334.324,164.733 331.348,161.745C329.685,160.074 328.251,158.175 326.891,156.149C329.1,155.955 331.132,155.992 333.604,156.025Z" style="fill:rgb(135,18,41);fill-rule:nonzero;"/>
    <path d="M35.075,185.02C41.843,184.463 41.843,184.463 42.002,191.398C42.013,191.895 41.993,192.394 42.023,192.891C42.491,200.656 41.588,201.31 33.868,198.805C31.03,197.883 28.23,196.792 25.334,196.107C21.489,195.197 21.799,193.346 23.901,190.554C24.006,190.242 24.335,189.969 24.937,189.943C28.701,188.304 31.864,186.69 35.026,185.076C35.026,185.076 35.042,185.008 35.075,185.02Z" style="fill:rgb(204,30,67);fill-rule:nonzero;"/>
    <path d="M199.973,363.002C200.187,355.256 200.398,347.51 200.651,339.766C200.654,339.697 201.227,339.647 201.822,340.169C202.023,347.119 206.998,346.594 211.4,347.231C214.147,345.738 216.55,344.332 218.953,342.926C218.953,342.926 219.009,343.355 218.983,343.92C218.971,344.966 218.985,345.446 218.998,345.927C218.683,346.417 218.368,346.907 217.566,347.684C212.378,352.631 207.678,357.292 202.977,361.952C202.836,362.253 202.637,362.509 201.841,362.852C200.86,362.991 200.417,362.996 199.973,363.002Z" style="fill:rgb(145,148,155);fill-rule:nonzero;"/>
    <path d="M145.286,71.12C153.427,68.03 161.889,65.121 170.32,62.122C173.428,61.017 176.46,59.7 179.77,58.225C180.464,58.021 180.914,58.072 181.908,58.365C182.978,58.731 183.504,58.856 184.029,58.981C184.759,59.037 185.488,59.093 186.577,59.216C186.092,60.199 185.412,61.604 184.376,61.954C173.219,65.723 162.006,69.325 150.424,72.995C148.558,72.433 147.076,71.849 145.286,71.12Z" style="fill:rgb(187,27,60);fill-rule:nonzero;"/>
    <path d="M63.206,251.274C63.231,248.332 63.477,245.629 63.751,242.622C65.494,242.893 67.23,243.162 69.546,243.522C69.853,241.249 70.147,239.068 70.591,235.786C74.57,237.238 78.173,238.553 81.945,240.145C75.885,244.119 69.656,247.816 63.206,251.274Z" style="fill:rgb(144,20,44);fill-rule:nonzero;"/>
    <path d="M102.049,41.236C109.009,38.978 116.019,37.023 123.024,35.052C127.491,33.794 131.951,32.512 136.76,31.084C138.137,30.966 139.168,31.006 140.583,31.104C140.192,32.298 139.616,34.193 138.615,34.453C127.068,37.45 115.457,40.199 103.452,43.016C102.726,42.524 102.411,42.028 102.049,41.236Z" style="fill:rgb(184,27,59);fill-rule:nonzero;"/>
    <path d="M173.938,317.046C174.405,319.521 175.208,322.47 174.917,325.307C174.333,331.011 175.61,335.265 181.811,337.272C179.207,340.297 176.417,343.058 173.284,345.827C173.22,336.38 173.5,326.925 173.938,317.046Z" style="fill:rgb(89,6,30);fill-rule:nonzero;"/>
    <path d="M25.058,238.407C26.226,237.271 28.746,236.457 28.748,235.638C28.761,229.318 32.327,231.21 35.582,232.445C36.426,232.765 37.075,233.604 37.902,234.541C34.121,237.418 30.83,241.871 25.058,238.407Z" style="fill:rgb(149,21,47);fill-rule:nonzero;"/>
    <path d="M293.227,331.693C292.957,330.261 292.78,328.716 293.121,327.297C293.599,325.307 294.463,323.41 295.161,321.474C296.991,322.398 298.821,323.322 300.839,324.524C298.534,327.08 296.043,329.358 293.227,331.693Z" style="fill:rgb(144,20,44);fill-rule:nonzero;"/>
    <path d="M162.231,351.261C162.659,350.023 163.734,349.111 163.925,348.041C164.97,342.181 165.567,341.888 170.874,345.554C168.503,348.292 167.306,352.655 162.231,351.261Z" style="fill:rgb(89,6,30);fill-rule:nonzero;"/>
    <path d="M203.332,361.932C207.678,357.292 212.378,352.631 217.425,347.953C213.077,352.595 208.382,357.253 203.332,361.932Z" style="fill:rgb(115,120,125);fill-rule:nonzero;"/>
    <path d="M229.237,335.839C232.643,332.03 236.375,328.116 240.424,324.168C237.015,328 233.289,331.867 229.237,335.839Z" style="fill:rgb(101,74,82);fill-rule:nonzero;"/>
    <path d="M219.337,345.917C218.985,345.446 218.971,344.966 219.034,344.13C219.76,343.092 220.412,342.408 221.135,341.441C223.552,339.435 225.898,337.713 228.595,335.951C225.857,339.243 222.766,342.575 219.337,345.917Z" style="fill:rgb(101,74,82);fill-rule:nonzero;"/>
    <path d="M34.649,185.081C31.864,186.69 28.701,188.304 25.146,189.902C27.926,188.287 31.099,186.687 34.649,185.081Z" style="fill:rgb(196,29,63);fill-rule:nonzero;"/>
    <path d="M364.122,129.733C364.029,129.102 364.148,128.232 364.477,127.205C364.569,127.863 364.452,128.678 364.122,129.733Z" style="fill:rgb(135,18,41);fill-rule:nonzero;"/>
    <path d="M199.948,363.299C200.417,362.996 200.86,362.991 201.636,362.985C201.502,363.628 201.036,364.272 200.23,364.854C199.901,364.393 199.912,363.995 199.948,363.299Z" style="fill:rgb(115,120,125);fill-rule:nonzero;"/>
    <path d="M183.847,58.759C183.504,58.856 182.978,58.731 182.242,58.43C182.576,58.349 183.121,58.443 183.847,58.759Z" style="fill:rgb(154,22,49);fill-rule:nonzero;"/>
    <path d="M289.157,331.178C289.356,330.99 289.596,331.096 289.917,331.446C290.035,331.607 289.592,331.653 289.592,331.653C289.592,331.653 289.236,331.386 289.157,331.178Z" style="fill:rgb(144,20,44);fill-rule:nonzero;"/>
    <path d="M288.007,330.29C288.22,330.131 288.501,330.287 288.874,330.729C288.719,330.79 288.422,330.653 288.007,330.29Z" style="fill:rgb(144,20,44);fill-rule:nonzero;"/>
    <path d="M334.193,346.134C334.355,345.971 334.593,346.063 334.904,346.409C334.737,346.583 334.5,346.492 334.193,346.134Z" style="fill:rgb(149,21,47);fill-rule:nonzero;"/>
    <path d="M337.173,347.071C337.109,346.941 337.475,346.87 337.66,346.89C337.846,346.91 337.623,347.251 337.623,347.251C337.623,347.251 337.237,347.2 337.173,347.071Z" style="fill:rgb(149,21,47);fill-rule:nonzero;"/>
    <path d="M348.263,170.029C348.127,169.861 348.251,169.593 348.6,169.197C348.802,169.375 348.702,169.662 348.263,170.029Z" style="fill:rgb(135,18,41);fill-rule:nonzero;"/>
    <path d="M255.298,212.307C255.791,212.987 255.977,213.638 256.002,214.295C256.402,224.882 258.112,226.472 269.341,225.91C268.558,239.362 267.78,252.742 266.746,266.716C265.78,268.215 265.07,269.12 264.361,270.025C264.072,272.809 263.783,275.593 263.417,279.118C260.794,278.485 258.439,278.052 256.169,277.345C247.292,274.58 238.45,271.7 229.579,268.916C221.749,266.458 221.716,266.431 226.407,258.176C222.246,256.832 218.307,255.561 213.916,253.912C213.603,240.365 213.742,227.195 213.913,213.662C203.191,210.179 192.438,207.059 181.385,203.785C179.606,203.231 178.128,202.83 176.068,202.272C176.068,215.813 176.068,228.52 176.048,241.444C176.028,241.661 176.001,242.097 176.001,242.097C174.697,241.891 173.311,241.902 172.103,241.443C165.864,239.078 165.579,238.041 168.147,232.128C167.972,229.331 167.848,226.53 167.61,223.739C167.195,218.876 166.61,214.026 166.312,209.158C166.217,207.61 166.847,206.027 167.072,204.45C167.272,203.051 168.009,201.177 167.391,200.319C165.596,197.827 165.31,195.446 167.832,193.865C169.983,192.517 173.026,191.072 175.231,191.582C187.704,194.468 200.039,197.944 212.429,201.192C226.587,204.903 240.753,208.585 255.298,212.307M255.858,256.192C256.145,253.345 256.432,250.499 256.811,246.738C251.706,243.294 256.728,240.132 259.494,236.481C257.002,235.475 254.921,234.5 252.754,233.785C243.974,230.89 243.965,230.919 248.758,222.34C245.046,221.206 241.511,220.001 237.906,219.067C235.441,218.428 234.203,219.622 234.129,222.215C233.808,233.49 233.335,244.761 233.178,256.037C233.158,257.463 234.355,259.753 235.537,260.204C241.231,262.378 247.115,264.059 252.857,265.891C254.159,263.698 255.343,262.082 256.099,260.285C256.547,259.224 256.318,257.878 255.858,256.192Z" style="fill:rgb(33,31,35);fill-rule:nonzero;"/>
    <path d="M197.984,183.004C198.335,146.924 198.727,110.843 198.973,74.762C198.997,71.246 199.979,69.25 203.516,68.22C207.653,67.016 211.635,65.268 215.665,63.707C219.151,62.358 221.135,63.028 220.978,67.241C220.332,84.493 219.62,101.743 219.176,119.001C218.889,130.142 218.967,141.294 219.001,152.441C219.014,156.42 218.135,159.901 214.099,161.371C209.011,163.225 207.366,166.687 207.919,171.84C208.143,173.925 207.548,176.099 206.845,178.759C203.571,180.526 200.777,181.765 197.984,183.004Z" style="fill:rgb(153,22,49);fill-rule:nonzero;"/>
    <path d="M264.729,270.049C265.07,269.12 265.78,268.215 266.743,267.153C279.356,270.741 291.697,274.553 304.096,278.163C306.051,278.733 308.272,278.391 310.675,278.245C312.592,276.921 314.413,276.035 315.781,274.689C323.016,267.57 330.137,260.335 337.607,253.029C343.857,260.797 349.796,268.677 355.91,276.868C351.942,282.345 347.801,287.512 343.384,292.85C320.15,286.209 297.194,279.389 274.231,272.59C271.204,271.694 268.143,270.909 264.729,270.049Z" style="fill:rgb(189,28,61);fill-rule:nonzero;"/>
    <path d="M254.763,68.047C253.562,94.831 252.361,121.615 251.16,148.367C240.013,148.086 240.176,148.09 239.891,158.641C239.604,169.249 238.948,179.847 237.835,190.758C235.177,190.681 233.138,190.296 231.083,189.449C231.741,171.328 232.417,153.668 233.093,136.007C235.417,136.334 237.741,136.661 240.813,136.823C242.342,135.119 243.709,133.616 243.806,132.035C244.356,123.126 244.63,114.2 244.942,105.278C245.386,92.551 245.781,79.822 246.58,67.097C249.564,67.416 252.163,67.732 254.763,68.047Z" style="fill:rgb(179,96,62);fill-rule:nonzero;"/>
    <path d="M98.799,221.992C98.877,223.435 98.955,224.879 99.079,227.19C95.993,226.393 93.494,225.847 91.057,225.097C85.824,223.486 80.718,221.29 75.382,220.226C69.627,219.079 68.25,215.925 68.088,210.541C67.758,199.606 66.715,188.692 66.001,177.767C65.897,176.173 65.987,174.567 65.987,172.728C68.444,172.875 70.37,172.99 72.619,173.124C72.842,170.346 73.047,167.799 73.309,164.552C79.669,166.294 85.546,167.904 91.735,170.102C92.902,175.664 93.778,180.633 94.585,185.613C94.683,186.218 94.358,186.879 94.326,187.519C94.096,191.994 93.853,196.47 93.697,200.948C93.623,203.08 93.696,205.218 93.772,207.352C93.81,208.418 93.722,209.619 94.171,210.519C96.662,215.508 96.539,215.764 90.861,215.458C90.276,203.756 89.604,192.497 89.026,181.234C88.83,177.416 85.963,177.135 83.392,177.275C82.727,177.311 82.139,180.122 81.661,181.702C81.391,182.594 81.417,183.575 81.281,184.766C78.948,184.601 76.884,184.455 74.134,184.26C74.451,190.495 74.824,196.389 75.027,202.289C75.197,207.23 75.489,212.001 81.107,213.989C81.732,216.041 82.156,218.657 83.595,219.466C85.656,220.624 88.458,220.462 90.944,220.863C90.972,220.975 91,221.086 91.029,221.197C93.619,221.462 96.209,221.727 98.799,221.992Z" style="fill:rgb(33,32,36);fill-rule:nonzero;"/>
    <path d="M213.882,214.025C213.742,227.195 213.603,240.365 213.526,253.915C213.456,254.912 213.324,255.529 212.732,256.539C202.17,253.941 192.068,250.949 181.856,247.522C181.572,244.148 181.398,241.209 181.339,237.79C181.604,226.865 181.754,216.421 182.322,205.987C184.364,206.268 186.024,206.408 187.606,206.834C196.375,209.192 205.125,211.621 213.882,214.025M194.921,238.989C199.609,240.34 204.297,241.691 209.828,243.285C209.828,238.712 209.86,235.078 209.82,231.444C209.765,226.483 211.51,220.053 209.063,216.962C206.468,213.686 199.869,213.578 195.013,212.105C194.708,212.012 194.353,212.086 193.496,211.63C192.707,212.146 191.242,212.647 191.231,213.18C191.057,221.295 191.023,229.415 191.18,237.529C191.189,237.985 193.138,238.403 194.921,238.989Z" style="fill:rgb(185,190,198);fill-rule:nonzero;"/>
    <path d="M90.809,215.899C96.539,215.764 96.662,215.508 94.171,210.519C93.722,209.619 93.81,208.418 93.772,207.352C93.696,205.218 93.623,203.08 93.697,200.948C93.853,196.47 94.096,191.994 94.326,187.519C94.358,186.879 94.683,186.218 94.585,185.613C93.778,180.633 92.902,175.664 92.035,170.31C94.778,170.563 97.532,171.198 100.622,172.343C98.889,180.06 101.677,182.698 110.614,181.885C110.098,179.365 109.584,176.853 109.071,174.342C110.823,174.774 112.575,175.205 114.661,176.234C114.344,179.38 113.692,181.928 112.809,184.669C112.488,185.603 112.399,186.344 112.25,187.529C112.343,190.94 112.497,193.907 112.509,197.293C112.607,200.467 112.846,203.223 113.035,206.435C113.003,210.514 113.021,214.138 112.672,217.878C110.145,218.88 107.984,219.765 105.824,220.65C105.686,220.533 105.547,220.417 105.207,219.71C104.869,217.284 104.732,215.448 104.595,213.612C104.073,213.47 103.55,213.329 103.027,213.187C102.011,215.009 100.995,216.831 99.978,218.653C99.632,219.525 99.286,220.398 98.869,221.631C96.209,221.727 93.619,221.462 91.029,221.197C91,221.086 90.972,220.975 90.944,220.863C88.458,220.462 85.656,220.624 83.595,219.466C82.156,218.657 81.732,216.041 81.479,214.01C85.005,214.492 87.907,215.196 90.809,215.899M103.395,187.99C102.765,187.191 102.134,186.392 101.503,185.593C101.104,186.39 100.706,187.187 100.307,187.984C101.243,188.176 102.178,188.367 103.395,187.99M101.889,198.63C102.452,197.772 103.014,196.913 103.577,196.055C102.864,195.894 102.151,195.733 101.439,195.572C101.389,196.502 101.34,197.433 101.889,198.63M103.334,207.788C103.639,206.917 103.944,206.045 104.248,205.174C103.415,205.176 102.583,205.177 101.75,205.179C102.058,206.049 102.367,206.919 103.334,207.788Z" style="fill:rgb(26,27,30);fill-rule:nonzero;"/>
    <path d="M166.945,277.021C168.349,277.537 169.747,278.072 171.159,278.565C175.631,280.126 177.736,285.1 175.517,289.169C174.053,291.851 171.871,291.938 169.146,290.92C160.58,287.72 152.052,284.337 143.29,281.772C138.055,280.24 136.966,276.83 138.301,272.829C138.99,270.766 142.302,269.579 144.429,267.996C144.974,268.393 145.519,268.79 146.064,269.187C146.064,265.59 145.972,261.989 146.086,258.395C146.234,253.751 148.207,252.337 152.438,253.775C156.516,255.16 160.558,256.653 164.695,258.773C164.439,265.703 164.104,271.96 163.701,279.464C165.686,277.97 166.315,277.495 166.945,277.021Z" style="fill:rgb(121,9,40);fill-rule:nonzero;"/>
    <path d="M181.505,312.697C164.663,306.897 147.934,300.736 130.907,294.372C131.093,290.872 131.578,287.574 132.397,284.018C144.676,287.882 156.637,291.949 168.553,296.146C175.136,298.465 181.641,301.001 188.249,303.961C187.539,305.315 186.76,306.149 185.982,306.983C184.527,308.767 183.073,310.552 181.505,312.697Z" style="fill:rgb(34,31,35);fill-rule:nonzero;"/>
    <path d="M113.041,184.476C113.692,181.928 114.344,179.38 114.996,176.426C125.123,178.515 135.283,180.885 145.328,183.672C146.527,184.005 147.792,186.582 147.848,188.161C148.313,201.079 148.533,214.007 148.756,226.934C148.889,234.705 148.832,234.706 141.029,231.596C140.348,229.445 140.152,227.728 139.998,225.658C139.996,224.598 139.952,223.89 140.013,222.846C139.765,213.67 139.41,204.831 139.091,195.658C139.08,194.883 139.033,194.44 139.093,193.775C137.488,192.66 135.776,191.768 133.768,190.684C131.868,190.132 130.263,189.772 128.426,189.22C127.426,188.858 126.659,188.689 125.6,188.388C124.884,188.22 124.461,188.187 123.769,187.945C123.061,187.698 122.62,187.659 122.062,187.516C121.945,187.413 121.632,187.433 121.362,187.211C118.408,186.151 115.724,185.313 113.041,184.476Z" style="fill:rgb(33,32,36);fill-rule:nonzero;"/>
    <path d="M54.953,146.069C52.921,145.461 50.89,144.854 48.51,143.623C47.4,131.069 46.754,119.131 45.841,107.212C45.131,97.952 44.196,88.704 43.075,79.486C42.91,78.126 41.158,76.96 40.14,75.704C38.936,75.227 37.733,74.749 36.216,73.73C35.262,63.736 34.621,54.285 33.981,44.833C35.135,46.192 36.965,47.402 37.303,48.94C38.048,52.318 38.049,55.861 38.332,59.338C38.641,63.137 39.27,66.462 44.147,67.121C45.236,67.268 46.71,69.666 46.828,71.123C48.362,90.166 49.615,109.232 51.11,128.278C51.465,132.807 50.627,138.212 57.551,139.321C58.581,139.486 59.72,142.38 59.868,144.092C60.908,156.172 61.779,168.268 62.449,180.374C62.512,181.496 60.806,182.716 59.489,183.46C58.657,177.464 58.44,171.876 57.81,166.336C57.039,159.56 55.921,152.823 54.953,146.069Z" style="fill:rgb(178,92,62);fill-rule:nonzero;"/>
    <path d="M54.999,46.994C58.365,46.15 61.699,44.975 65.115,44.643C66.282,44.529 68.678,46.443 68.776,47.58C69.725,58.64 70.265,69.735 71.017,80.813C71.21,83.657 69.994,85.082 67.33,85.779C63.866,86.685 60.459,87.813 56.182,89.1C55.09,75.831 54.062,63.348 53.353,50.332C54.115,48.864 54.557,47.929 54.999,46.994Z" style="fill:rgb(153,22,48);fill-rule:nonzero;"/>
    <path d="M91.172,115.842C89.336,115.274 87.499,114.707 85.272,113.658C84.259,104.742 83.564,96.313 83.029,87.873C82.326,76.78 81.5,65.685 81.244,54.579C81.147,50.36 79.013,45.594 83.003,41.846C83.985,44.685 85.64,47.478 85.84,50.371C87.041,67.747 87.809,85.152 89.048,102.525C89.166,104.172 91.259,106.456 92.928,107.045C95.936,108.104 97.055,109.521 97.159,112.723C97.628,127.149 98.361,141.566 98.64,156.404C97.186,156.535 96.093,156.249 94.978,155.536C94.29,143.599 93.68,132.085 92.887,120.584C92.776,118.972 91.766,117.421 91.172,115.842Z" style="fill:rgb(179,93,62);fill-rule:nonzero;"/>
    <path d="M182.199,91.027C187.115,90.878 189.191,92.789 189.048,98.155C188.672,112.291 189.017,126.444 188.859,140.588C188.721,153.05 188.292,165.509 187.602,178.429C185.507,178.556 183.802,178.224 182.062,177.431C182.084,148.322 182.142,119.674 182.199,91.027Z" style="fill:rgb(179,95,62);fill-rule:nonzero;"/>
    <path d="M124.037,188.153C124.461,188.187 124.884,188.22 125.76,188.678C127.027,189.205 127.843,189.309 128.659,189.413C130.263,189.772 131.868,190.132 133.844,191.013C135.805,192.356 137.395,193.177 138.985,193.998C139.033,194.44 139.08,194.883 138.724,195.672C137.833,196.041 137.344,196.064 136.48,196.045C132.049,194.923 127.994,193.842 123.689,192.562C122.327,192.89 121.218,193.417 120.07,194.394C120.377,202.078 120.678,209.314 121.115,216.542C121.177,217.57 121.723,219.299 122.347,219.449C128.163,220.85 134.044,221.977 139.907,223.183C139.952,223.89 139.996,224.598 139.799,225.948C139.732,228.471 139.908,230.35 140.084,232.23C140.112,232.691 140.139,233.152 139.731,233.904C130.976,231.748 122.658,229.3 114.22,226.443C113.747,223.276 113.393,220.519 113.039,217.761C113.021,214.138 113.003,210.514 113.251,206.12C113.229,202.525 112.94,199.7 112.65,196.875C112.497,193.907 112.343,190.94 112.656,187.518C115.959,187.188 118.796,187.311 121.632,187.433C121.632,187.433 121.945,187.413 122.043,187.796C122.386,188.527 122.629,188.875 122.873,189.223C123.261,188.867 123.649,188.51 124.037,188.153Z" style="fill:rgb(187,192,200);fill-rule:nonzero;"/>
    <path d="M65.971,122.157C65.311,112.912 64.468,104.15 64.151,95.37C64.086,93.571 65.55,91.034 67.09,90.013C69.806,88.211 71.768,89.401 71.964,92.918C72.96,110.817 74.233,128.705 74.837,146.616C74.971,150.586 72.851,154.651 71.61,158.623C71.449,159.136 69.858,159.773 69.731,159.631C69.032,158.854 68.232,157.896 68.109,156.919C67.633,153.137 67.312,149.329 67.097,145.522C66.665,137.895 66.342,130.262 65.971,122.157Z" style="fill:rgb(155,22,49);fill-rule:nonzero;"/>
    <path d="M94.999,155.963C96.093,156.249 97.186,156.535 98.614,156.866C101.691,158.306 104.343,159.944 107.206,161.023C109.76,161.986 112.547,162.333 115.981,162.909C119.156,161.912 121.582,160.957 124.008,160.001C124.701,164.724 126.974,167.594 132.958,166.981C134.759,166.663 135.809,166.356 137.178,166.247C138.99,166.615 140.483,166.785 141.975,166.956C142.864,172.084 146.841,171.221 150.666,171.138C156.772,168.43 162.559,165.854 168.667,163.128C168.986,168.061 168.986,173.143 168.986,178.932C165.142,178.062 161.187,177.253 157.276,176.266C135.739,170.836 114.206,165.387 92.705,159.815C91.801,159.58 91.229,158.065 91.126,157.049C92.833,156.622 93.916,156.293 94.999,155.963Z" style="fill:rgb(187,27,60);fill-rule:nonzero;"/>
    <path d="M82.851,41.522C79.013,45.594 81.147,50.36 81.244,54.579C81.5,65.685 82.326,76.78 83.029,87.873C83.564,96.313 84.259,104.742 84.911,113.597C82.635,115.156 81.167,114.925 80.985,111.901C80.367,101.668 79.622,91.443 79.016,81.209C78.292,68.991 77.551,56.772 77.045,44.544C76.849,39.803 78.023,39.269 82.851,41.522Z" style="fill:rgb(158,29,51);fill-rule:nonzero;"/>
    <path d="M181.776,91.043C182.142,119.674 182.084,148.322 181.669,177.463C180.525,177.986 179.74,178.016 178.954,178.047C178.958,150.942 178.915,123.837 179.07,96.733C179.08,94.838 180.558,92.951 181.776,91.043Z" style="fill:rgb(157,31,51);fill-rule:nonzero;"/>
    <path d="M299.982,291.903C305.426,293.368 310.933,294.645 316.261,296.45C317.376,296.827 318.374,299.116 318.474,300.589C318.663,303.377 318.161,306.212 317.544,309.522C311.481,308.602 305.822,307.188 300.111,305.333C300.035,300.563 300.008,296.233 299.982,291.903Z" style="fill:rgb(122,9,41);fill-rule:nonzero;"/>
    <path d="M40.09,76.196C41.158,76.96 42.91,78.126 43.075,79.486C44.196,88.704 45.131,97.952 45.841,107.212C46.754,119.131 47.4,131.069 48.203,143.455C45.558,145.71 45.2,143.927 44.99,141.822C44.431,136.244 43.698,130.679 43.298,125.09C42.143,108.961 41.117,92.822 40.09,76.196Z" style="fill:rgb(157,26,50);fill-rule:nonzero;"/>
    <path d="M246.197,67.093C245.781,79.822 245.386,92.551 244.942,105.278C244.63,114.2 244.356,123.126 243.806,132.035C243.709,133.616 242.342,135.119 241.206,136.811C241.243,121.202 241.59,105.439 242.047,89.68C242.258,82.391 242.581,75.1 243.108,67.828C243.202,66.533 244.548,65.328 245.701,64.443C246.123,65.567 246.16,66.33 246.197,67.093Z" style="fill:rgb(158,29,50);fill-rule:nonzero;"/>
    <path d="M181.966,247.957C192.068,250.949 202.17,253.941 212.645,256.999C212.903,258.823 212.788,260.581 212.631,262.986C209.396,262.183 206.706,261.645 204.097,260.842C197.014,258.662 189.948,256.422 182.917,254.08C181.269,253.531 179.786,252.486 178.277,251.051C179.541,249.607 180.754,248.782 181.966,247.957Z" style="fill:rgb(185,36,67);fill-rule:nonzero;"/>
    <path d="M114.34,226.853C122.658,229.3 130.976,231.748 139.69,234.25C139.959,235.919 139.832,237.533 139.635,240.036C133.568,238.251 127.921,236.753 122.389,234.909C117.926,233.421 113.602,231.516 109.448,229.358C111.233,228.231 112.787,227.542 114.34,226.853Z" style="fill:rgb(184,35,66);fill-rule:nonzero;"/>
    <path d="M124.015,159.533C121.582,160.957 119.156,161.912 116.382,162.929C115.709,156.632 115.383,150.272 115.412,143.395C118.501,141.933 121.237,140.989 123.973,140.045C123.99,146.384 124.006,152.724 124.015,159.533Z" style="fill:rgb(153,22,49);fill-rule:nonzero;"/>
    <path d="M232.813,135.809C232.417,153.668 231.741,171.328 230.784,189.594C229.679,190.463 228.855,190.726 228.03,190.99C228.368,175.125 228.559,159.255 229.185,143.402C229.29,140.746 227.832,136.621 232.813,135.809Z" style="fill:rgb(160,29,51);fill-rule:nonzero;"/>
    <path d="M94.978,155.536C93.916,156.293 92.833,156.622 91.41,156.966C90.41,145.543 89.664,134.11 89.167,122.665C89.074,120.525 89.981,118.341 90.799,116.009C91.766,117.421 92.776,118.972 92.887,120.584C93.68,132.085 94.29,143.599 94.978,155.536Z" style="fill:rgb(157,26,50);fill-rule:nonzero;"/>
    <path d="M300.162,305.774C305.822,307.188 311.481,308.602 317.548,309.965C317.476,316.763 316.308,317.698 310.219,315.538C305.161,313.744 300.209,311.651 295.389,309.189C297.099,307.716 298.631,306.745 300.162,305.774Z" style="fill:rgb(184,27,59);fill-rule:nonzero;"/>
    <path d="M54.698,146.349C55.921,152.823 57.039,159.56 57.81,166.336C58.44,171.876 58.657,177.464 59.112,183.459C57.794,182.676 55.362,181.579 55.217,180.234C54.208,170.899 53.578,161.518 53.072,152.139C52.974,150.332 53.958,148.467 54.698,146.349Z" style="fill:rgb(158,29,50);fill-rule:nonzero;"/>
    <path d="M33.676,44.646C34.621,54.285 35.262,63.736 35.91,73.616C34.039,74.874 32.283,75.357 32.029,72.401C31.333,64.326 30.599,56.254 30.017,48.171C29.863,46.024 29.77,43.442 33.676,44.646Z" style="fill:rgb(158,29,51);fill-rule:nonzero;"/>
    <path d="M36.952,223.897C36.046,223.353 34.422,222.892 34.348,222.251C33.788,217.426 33.533,212.566 33.122,206.884C35.76,207.67 37.581,208.212 39.719,209.353C40.392,213.588 40.749,217.224 40.765,220.951C39.267,221.994 38.109,222.946 36.952,223.897Z" style="fill:rgb(155,22,49);fill-rule:nonzero;"/>
    <path d="M186.402,307.005C186.76,306.149 187.539,305.315 188.549,304.207C196.429,306.703 204.078,309.473 211.49,312.643C210.572,313.357 209.889,313.672 209.207,313.986C201.745,311.667 194.283,309.347 186.402,307.005Z" style="fill:rgb(171,167,176);fill-rule:nonzero;"/>
    <path d="M300.111,305.333C298.631,306.745 297.099,307.716 295.278,308.858C294.997,304.09 294.968,299.151 295.028,294.212C295.066,291.029 296.104,289.258 299.75,291.671C300.008,296.233 300.035,300.563 300.111,305.333Z" style="fill:rgb(154,22,49);fill-rule:nonzero;"/>
    <path d="M249.692,295.833C248.542,302.037 240.451,308.198 234.295,306.71C238.391,302.692 242.035,299.119 245.848,295.254C247.137,295.204 248.257,295.446 249.692,295.833Z" style="fill:rgb(140,21,44);fill-rule:nonzero;"/>
    <path d="M108.783,174.181C109.584,176.853 110.098,179.365 110.614,181.885C101.677,182.698 98.889,180.06 100.976,172.493C103.495,172.761 105.995,173.39 108.783,174.181Z" style="fill:rgb(33,32,36);fill-rule:nonzero;"/>
    <path d="M41.106,220.86C40.749,217.224 40.392,213.588 40.052,209.52C44.666,209.233 47.64,210.885 47.198,216.209C47.065,217.801 47.653,219.452 47.541,221.524C45.149,221.601 43.127,221.23 41.106,220.86Z" style="fill:rgb(122,9,41);fill-rule:nonzero;"/>
    <path d="M209.171,314.456C209.889,313.672 210.572,313.357 211.531,312.977C211.766,321.23 211.724,329.548 211.542,338.48C211.216,339.345 211.069,339.618 210.704,340.039C209.93,340.411 209.415,340.657 208.901,340.902C208.978,332.243 209.056,323.584 209.171,314.456Z" style="fill:rgb(155,139,148);fill-rule:nonzero;"/>
    <path d="M123.982,139.607C121.237,140.989 118.501,141.933 115.418,142.948C113.448,142.241 111.826,141.463 110.099,140.369C114.41,138.065 118.826,136.078 123.59,134.002C123.956,135.666 123.973,137.418 123.982,139.607Z" style="fill:rgb(187,27,60);fill-rule:nonzero;"/>
    <path d="M114.22,226.443C112.787,227.542 111.233,228.231 109.33,229.028C107.982,226.536 106.984,223.936 105.905,220.993C107.984,219.765 110.145,218.88 112.672,217.878C113.393,220.519 113.747,223.276 114.22,226.443Z" style="fill:rgb(151,22,48);fill-rule:nonzero;"/>
    <path d="M197.675,183.101C200.777,181.765 203.571,180.526 206.679,179.139C207.155,181.602 207.316,184.214 207.574,188.402C203.727,187.368 200.326,186.474 196.965,185.45C196.878,185.423 197.223,183.98 197.675,183.101Z" style="fill:rgb(187,27,60);fill-rule:nonzero;"/>
    <path d="M181.856,247.522C180.754,248.782 179.541,249.607 178.169,250.716C177.332,248.321 176.655,245.642 175.99,242.53C176.001,242.097 176.028,241.661 176.352,241.355C178.191,240.123 179.708,239.197 181.224,238.271C181.398,241.209 181.572,244.148 181.856,247.522Z" style="fill:rgb(150,23,48);fill-rule:nonzero;"/>
    <path d="M40.765,220.951C43.127,221.23 45.149,221.601 47.558,221.934C47.843,223.746 47.741,225.596 47.591,228.286C43.693,226.787 40.587,225.593 37.216,224.148C38.109,222.946 39.267,221.994 40.765,220.951Z" style="fill:rgb(184,27,59);fill-rule:nonzero;"/>
    <path d="M166.944,276.553C166.315,277.495 165.686,277.97 163.701,279.464C164.104,271.96 164.439,265.703 164.936,259.017C165.712,264.42 166.328,270.252 166.944,276.553Z" style="fill:rgb(89,6,30);fill-rule:nonzero;"/>
    <path d="M227.736,191.078C228.855,190.726 229.679,190.463 230.801,190.055C233.138,190.296 235.177,190.681 237.608,191.116C238.221,196.039 234.683,195.069 231.941,194.868C228.293,194.602 227.28,193.592 227.736,191.078Z" style="fill:rgb(187,27,60);fill-rule:nonzero;"/>
    <path d="M178.765,178.278C179.74,178.016 180.525,177.986 181.704,177.923C183.802,178.224 185.507,178.556 187.585,178.891C188.252,182.281 186.575,183.947 183.553,182.478C181.785,181.618 176.794,183.944 178.765,178.278Z" style="fill:rgb(187,27,60);fill-rule:nonzero;"/>
    <path d="M210.963,339.913C211.069,339.618 211.216,339.345 211.57,338.934C214.063,339.947 216.39,341.119 218.834,342.609C216.55,344.332 214.147,345.738 211.388,346.762C211.009,344.225 210.986,342.069 210.963,339.913Z" style="fill:rgb(157,31,51);fill-rule:nonzero;"/>
    <path d="M246.58,67.097C246.16,66.33 246.123,65.567 246.109,64.425C249.244,64.562 253.204,62.808 254.797,67.672C252.163,67.732 249.564,67.416 246.58,67.097Z" style="fill:rgb(165,79,56);fill-rule:nonzero;"/>
    <path d="M100.32,218.808C100.995,216.831 102.011,215.009 103.027,213.187C103.55,213.329 104.073,213.47 104.595,213.612C104.732,215.448 104.869,217.284 105.006,219.528C103.558,219.612 102.11,219.288 100.32,218.808Z" style="fill:rgb(33,32,36);fill-rule:nonzero;"/>
    <path d="M140.254,232.15C139.908,230.35 139.732,228.471 139.756,226.301C140.152,227.728 140.348,229.445 140.651,231.529C140.757,231.896 140.424,232.07 140.254,232.15Z" style="fill:rgb(154,160,167);fill-rule:nonzero;"/>
    <path d="M54.675,47.082C54.557,47.929 54.115,48.864 53.36,49.9C53.482,49.057 53.917,48.114 54.675,47.082Z" style="fill:rgb(157,23,50);fill-rule:nonzero;"/>
    <path d="M76.587,154.959C76.845,154.781 77.098,154.771 77.352,154.762C77.348,154.905 77.345,155.048 77.341,155.191C77.088,155.17 76.836,155.149 76.587,154.959Z" style="fill:rgb(187,27,60);fill-rule:nonzero;"/>
    <path d="M326.973,92.021C326.266,101.966 325.551,111.912 324.855,121.858C324.581,125.782 322.24,126.307 318.929,125.736C312.165,124.571 311.454,125.409 310.961,131.955C309.488,151.505 307.795,171.039 306.191,190.579C305.744,196.023 305.311,201.469 304.82,207.549C302.528,207.224 300.586,207.142 298.755,206.648C295.074,205.655 293.281,207.171 293.024,210.716C292.292,220.827 291.511,230.938 291.01,241.062C290.61,249.168 290.298,249.532 282.368,246.6C283.042,229.027 284.098,211.991 285.153,194.956C287.822,195.31 290.491,195.665 293.94,195.925C295.783,191.525 297.45,187.269 297.809,182.906C299.754,159.29 301.375,135.647 303.108,112.014C306.086,112.357 309.063,112.7 312.799,112.846C314.225,111.022 315.278,109.445 315.491,107.761C316.193,102.217 316.591,96.634 317.505,91.074C320.927,91.395 323.95,91.708 326.973,92.021Z" style="fill:rgb(178,96,62);fill-rule:nonzero;"/>
    <path d="M302.831,111.838C301.375,135.647 299.754,159.29 297.809,182.906C297.45,187.269 295.783,191.525 294.346,195.914C295.274,179.029 296.6,162.061 297.869,145.089C298.609,135.201 299.171,125.298 300.05,115.423C300.168,114.105 301.685,112.913 302.831,111.838Z" style="fill:rgb(161,33,52);fill-rule:nonzero;"/>
    <path d="M284.853,194.76C284.098,211.991 283.042,229.027 282.002,246.527C279.057,248.321 278.938,246.314 279.035,244.334C279.352,237.863 279.703,231.392 280.132,224.928C280.714,216.148 281.279,207.365 282.108,198.608C282.242,197.196 283.705,195.909 284.853,194.76Z" style="fill:rgb(161,30,52);fill-rule:nonzero;"/>
    <path d="M317.105,91.066C316.591,96.634 316.193,102.217 315.491,107.761C315.278,109.445 314.225,111.022 313.215,112.825C313.263,105.648 313.553,98.286 314.145,90.949C314.238,89.793 315.698,88.747 316.787,88.211C317.067,89.537 317.086,90.302 317.105,91.066Z" style="fill:rgb(158,29,50);fill-rule:nonzero;"/>
    <path d="M317.505,91.074C317.086,90.302 317.067,89.537 317.062,88.391C320.481,88.758 325.021,86.045 326.971,91.634C323.95,91.708 320.927,91.395 317.505,91.074Z" style="fill:rgb(165,79,56);fill-rule:nonzero;"/>
    <path d="M141.973,166.491C140.483,166.785 138.99,166.615 137.128,165.83C136.547,163.903 136.17,162.594 136.15,161.279C135.757,135.164 135.406,109.049 135.046,82.934C138.797,83.048 140.101,84.949 140.141,88.7C140.319,105.337 140.71,121.972 141.099,138.606C141.313,147.748 141.676,156.887 141.973,166.491Z" style="fill:rgb(178,93,62);fill-rule:nonzero;"/>
    <path d="M134.739,82.735C135.406,109.049 135.757,135.164 136.15,161.279C136.17,162.594 136.547,163.903 136.808,165.632C135.809,166.356 134.759,166.663 133.376,166.98C132.682,148.69 132.368,130.391 131.94,112.093C131.739,103.454 131.278,94.822 131.031,86.184C130.969,84.027 130.794,81.407 134.739,82.735Z" style="fill:rgb(158,29,51);fill-rule:nonzero;"/>
    <path d="M210.704,340.039C210.986,342.069 211.009,344.225 211.044,346.85C206.998,346.594 202.023,347.119 202.106,340.352C204.117,340.339 206.133,340.724 208.525,341.005C209.415,340.657 209.93,340.411 210.704,340.039Z" style="fill:rgb(191,44,75);fill-rule:nonzero;"/>
    <path d="M256.126,256.426C256.318,257.878 256.547,259.224 256.099,260.285C255.343,262.082 254.159,263.698 252.857,265.891C247.115,264.059 241.231,262.378 235.537,260.204C234.355,259.753 233.158,257.463 233.178,256.037C233.335,244.761 233.808,233.49 234.129,222.215C234.203,219.622 235.441,218.428 237.906,219.067C241.511,220.001 245.046,221.206 248.758,222.34C243.965,230.919 243.974,230.89 252.754,233.785C254.921,234.5 257.002,235.475 259.494,236.481C256.728,240.132 251.706,243.294 256.811,246.738C256.432,250.499 256.145,253.345 256.126,256.426Z" style="fill:rgb(115,9,39);fill-rule:nonzero;"/>
    <path d="M181.339,237.79C179.708,239.197 178.191,240.123 176.372,241.138C176.068,228.52 176.068,215.813 176.068,202.272C178.128,202.83 179.606,203.231 181.388,204.131C181.762,205.079 181.833,205.528 181.903,205.977C181.754,216.421 181.604,226.865 181.339,237.79Z" style="fill:rgb(24,25,28);fill-rule:nonzero;"/>
    <path d="M182.322,205.987C181.833,205.528 181.762,205.079 181.689,204.285C192.438,207.059 203.191,210.179 213.913,213.662C205.125,211.621 196.375,209.192 187.606,206.834C186.024,206.408 184.364,206.268 182.322,205.987Z" style="fill:rgb(161,167,174);fill-rule:nonzero;"/>
    <path d="M90.861,215.458C87.907,215.196 85.005,214.492 81.731,213.766C75.489,212.001 75.197,207.23 75.027,202.289C74.824,196.389 74.451,190.495 74.134,184.26C76.884,184.455 78.948,184.601 81.281,184.766C81.417,183.575 81.391,182.594 81.661,181.702C82.139,180.122 82.727,177.311 83.392,177.275C85.963,177.135 88.83,177.416 89.026,181.234C89.604,192.497 90.276,203.756 90.861,215.458Z" style="fill:rgb(116,9,40);fill-rule:nonzero;"/>
    <path d="M194.021,212.083C194.353,212.086 194.708,212.012 195.013,212.105C199.869,213.578 206.468,213.686 209.063,216.962C211.51,220.053 209.765,226.483 209.82,231.444C209.86,235.078 209.828,238.712 209.828,243.285C204.297,241.691 199.609,240.34 194.477,238.46C194.029,229.315 194.025,220.699 194.021,212.083Z" style="fill:rgb(34,38,42);fill-rule:nonzero;"/>
    <path d="M193.759,211.857C194.025,220.699 194.029,229.315 194.109,238.385C193.138,238.403 191.189,237.985 191.18,237.529C191.023,229.415 191.057,221.295 191.231,213.18C191.242,212.647 192.707,212.146 193.759,211.857Z" style="fill:rgb(137,143,149);fill-rule:nonzero;"/>
    <path d="M121.362,187.211C118.796,187.311 115.959,187.188 112.717,187.075C112.399,186.344 112.488,185.603 112.809,184.669C115.724,185.313 118.408,186.151 121.362,187.211Z" style="fill:rgb(153,154,161);fill-rule:nonzero;"/>
    <path d="M112.509,197.293C112.94,199.7 113.229,202.525 113.301,205.664C112.846,203.223 112.607,200.467 112.509,197.293Z" style="fill:rgb(153,154,161);fill-rule:nonzero;"/>
    <path d="M103.255,188.274C102.178,188.367 101.243,188.176 100.307,187.984C100.706,187.187 101.104,186.39 101.503,185.593C102.134,186.392 102.765,187.191 103.255,188.274Z" style="fill:rgb(33,32,36);fill-rule:nonzero;"/>
    <path d="M101.59,198.497C101.34,197.433 101.389,196.502 101.439,195.572C102.151,195.733 102.864,195.894 103.577,196.055C103.014,196.913 102.452,197.772 101.59,198.497Z" style="fill:rgb(33,32,36);fill-rule:nonzero;"/>
    <path d="M103.005,207.789C102.367,206.919 102.058,206.049 101.75,205.179C102.583,205.177 103.415,205.176 104.248,205.174C103.944,206.045 103.639,206.917 103.005,207.789Z" style="fill:rgb(33,32,36);fill-rule:nonzero;"/>
    <path d="M136.856,196.087C137.344,196.064 137.833,196.041 138.688,196.005C139.41,204.831 139.765,213.67 140.013,222.846C134.044,221.977 128.163,220.85 122.347,219.449C121.723,219.299 121.177,217.57 121.115,216.542C120.678,209.314 120.377,202.078 120.425,194.415C121.772,194.007 122.726,194.03 123.76,194.512C123.839,202.743 123.839,210.514 123.839,217.986C129.129,219.206 133.046,220.11 136.856,220.989L136.856,196.087Z" style="fill:rgb(154,160,167);fill-rule:nonzero;"/>
    <path d="M139.093,193.775C137.395,193.177 135.805,192.356 134.139,191.205C135.776,191.768 137.488,192.66 139.093,193.775Z" style="fill:rgb(154,160,167);fill-rule:nonzero;"/>
    <path d="M128.426,189.22C127.843,189.309 127.027,189.205 126.051,188.811C126.659,188.689 127.426,188.858 128.426,189.22Z" style="fill:rgb(154,160,167);fill-rule:nonzero;"/>
    <path d="M123.769,187.945C123.649,188.51 123.261,188.867 122.873,189.223C122.629,188.875 122.386,188.527 122.161,187.899C122.62,187.659 123.061,187.698 123.769,187.945Z" style="fill:rgb(154,160,167);fill-rule:nonzero;"/>
    <path d="M136.48,196.045C136.856,204.185 136.856,212.284 136.856,220.989C133.046,220.11 129.129,219.206 123.839,217.986C123.839,210.514 123.839,202.743 123.869,194.198C123.914,193.204 123.927,192.983 123.94,192.761C127.994,193.842 132.049,194.923 136.48,196.045Z" style="fill:rgb(34,38,42);fill-rule:nonzero;"/>
    <path d="M123.689,192.562C123.927,192.983 123.914,193.204 123.79,193.739C122.726,194.03 121.772,194.007 120.463,193.964C121.218,193.417 122.327,192.89 123.689,192.562Z" style="fill:rgb(137,143,149);fill-rule:nonzero;"/>
</svg>
