<?xml version="1.0" encoding="utf-8"?>
<svg xmlns="http://www.w3.org/2000/svg" height="32" width="32" viewBox="0 0 32 32">
  <g>
    <path id="path1" transform="rotate(0,16,16) translate(1.99919856265717,0) scale(0.999842906838511,0.999842906838511)  " fill="#1FCF40" d="M7.9999176,7.3355279L19.9999,7.3355279C19.9999,7.3355279,22.666888,7.3355279,22.666888,10.002561L22.666888,16.669653C22.666888,16.669653,22.666888,19.336685,19.9999,19.336685L18.666894,19.336685 18.666894,24.669775 11.999911,19.336685 7.9999176,19.336685C7.9999176,19.336685,5.3328682,19.336685,5.3328682,16.669653L5.3328682,10.002561C5.3328682,10.002561,5.3328682,7.3355279,7.9999176,7.3355279z M2.6719228,2.666451L2.6719228,29.333847 25.338882,29.333847 25.338882,2.666451z M24.050798,1.7331489E-05C24.490251,0.0017413506,28.00587,0.1400453,28.00587,4.1244807L28.00587,28.083828C28.00587,28.083828,28.089852,32.000877,24.005876,32.000877L4.0469204,32.000877C4.0469204,32.000877,0.0059108917,32.291901,0.0059108759,28.000818L0.0059108759,4.0004554C0.0059108917,4.0004554,-0.32709641,0.00039474156,4.0059048,0.00039456894L24.005876,0.00039456894C24.005876,0.00039474156,24.021501,-9.7361833E-05,24.050798,1.7331489E-05z" />
  </g>
</svg>

